# AST/ASF file generated using VICON BodyLanguage
# -----------------------------------------------
:version 1.10
:name VICON
:units
  mass 1.0
  length 0.45
  angle deg
:documentation
   .ast/.asf automatically generated from VICON data using
   VICON BodyBuilder and BodyLanguage model FoxedUp or BRILLIANT.MOD
:root
   order TX TY TZ RX RY RZ
   axis XYZ
   position 0 0 0  
   orientation 0 0 0 
:bonedata
  begin
     id 1 
     name lhipjoint
     direction 0.567149 -0.783011 0.255413 
     length 2.28399 
     axis 0 0 0  XYZ
  end
  begin
     id 2 
     name lfemur
     direction 0.34202 -0.939693 0  
     length 7.34031  
     axis 0 0 20  XYZ
    dof rx ry rz
    limits (-160.0 20.0)
           (-70.0 70.0)
           (-60.0 70.0)
  end
  begin
     id 3 
     name ltibia
     direction 0.34202 -0.939693 0   
     length 6.9833   
     axis 0 0 20   XYZ
    dof rx
    limits (-10.0 170.0)
  end
  begin
     id 4 
     name lfoot
     direction 0.136498 -0.375025 0.91691   
     length 2.33665   
     axis -90 7.62852e-016 20   XYZ
    dof rx rz
    limits (-45.0 90.0)
           (-70.0 20.0)
  end
  begin
     id 5 
     name ltoes
     direction 1.5367e-011 -4.21617e-011 1   
     length 1.15039   
     axis -90 7.62852e-016 20   XYZ
    dof rx
    limits (-90.0 20.0)
  end
  begin
     id 6 
     name rhipjoint
     direction -0.602854 -0.758518 0.247423   
     length 2.35775  
     axis 0 0 0  XYZ 
  end
  begin
     id 7 
     name rfemur
     direction -0.34202 -0.939693 0   
     length 7.43932   
     axis 0 0 -20   XYZ
    dof rx ry rz
    limits (-160.0 20.0)
           (-70.0 70.0)
           (-70.0 60.0)
  end
  begin
     id 8 
     name rtibia
     direction -0.34202 -0.939693 0   
     length 7.11893   
     axis 0 0 -20   XYZ
    dof rx
    limits (-10.0 170.0)
 end
 begin
     id 9 
     name rfoot
     direction -0.131771 -0.362037 0.922803   
     length 2.53019  
     axis -90 -7.62852e-016 -20   XYZ
    dof rx rz
    limits (-45.0 90.0)
           (-20.0 70.0)
  end
  begin
     id 10 
     name rtoes
     direction -1.53733e-011 -4.21932e-011 1   
     length 1.24596   
     axis -90 -7.62852e-016 -20   XYZ
    dof rx
    limits (-90.0 20.0)
  end
  begin
     id 11 
     name lowerback
     direction 0.0235427 0.999023 -0.0374125   
     length 2.21768   
     axis 0 0 0   XYZ
    dof rx ry rz
    limits (-20.0 45.0)
           (-30.0 30.0)
           (-30.0 30.0)
  end
  begin
     id 12 
     name upperback
     direction 0.0302156 0.996818 -0.073759   
     length 2.20352   
     axis 0 0 0   XYZ
    dof rx ry rz
    limits (-20.0 45.0)
           (-30.0 30.0)
           (-30.0 30.0)
  end
  begin
     id 13 
     name thorax
     direction 0.0187169 0.998235 -0.0563532   
     length 2.22103   
     axis 0 0 0   XYZ
    dof rx ry rz
    limits (-20.0 45.0)
           (-30.0 30.0)
           (-30.0 30.0)
  end
  begin
     id 14 
     name lowerneck
     direction -0.119528 0.987423 0.103481   
     length 1.72948   
     axis 0 0 0   XYZ
    dof rx ry rz
    limits (-20.0 45.0)
           (-30.0 30.0)
           (-30.0 30.0)
  end
  begin
     id 15 
     name upperneck
     direction 0.248049 0.963095 -0.104496   
     length 1.74979   
     axis 0 0 0   XYZ
    dof rx ry rz
    limits (-20.0 45.0)
           (-30.0 30.0)
           (-30.0 30.0)
  end
  begin
     id 16
     name head
     direction 0.0903589 0.994284 -0.056876  
     length 1.78268  
     axis 0 0 0   XYZ
    dof rx ry rz
    limits (-20.0 45.0)
           (-30.0 30.0)
           (-30.0 30.0)
  end
  begin
     id 17 
     name lclavicle
     direction 0.946008 0.242039 -0.215608  
     length 3.80783  
     axis 0 0 0   XYZ
    dof ry rz
    limits (-20.0 10.0)
           (0.0 20.0)
  end
  begin
     id 18 
     name lhumerus
     direction 1 -4.48991e-011 -2.25695e-027   
     length 4.83125   
     axis 180 -30 -90   XYZ
    dof rx ry rz
    limits (-60.0 90.0)
           (-90.0 90.0)
           (-90.0 90.0)
  end
  begin
     id 19
     name lradius
     direction 0.999991 0.00366712 -0.00211721   
     length 3.00391   
     axis 180 -30 -90   XYZ
    dof rx
    limits (-10.0 170.0)
  end
  begin
     id 20
     name lwrist
     direction 0.999991 0.00393016 -0.00141978   
     length 1.50195   
     axis -1.00488e-014 90 90   XYZ
    dof ry
    limits (-180.0 0.0)
 end
  begin
     id 21 
     name lhand
     direction 1 -4.49123e-011 2.72098e-026   
     length 1.2717   
     axis -1.73687e-014 90 90   XYZ
    dof rx rz
    limits (-90.0 90.0)
           (-45.0 45.0)
  end
  begin
     id 22 
     name lfingers
     direction 1 -4.48678e-011 5.4479e-026   
     length 1.02528   
     axis -3.47372e-014 90 90   XYZ
    dof rx
    limits (0.0 90.0)
  end
  begin
     id 23
     name lthumb
     direction 0.707107 -6.34851e-011 0.707107   
     length 1.4721   
     axis -90 45 -1.62303e-014   XYZ
    dof rx rz
    limits (-45.0 45.0)
           (-45.0 45.0)
  end
  begin
     id 24 
     name rclavicle
     direction -0.981723 0.189447 -0.0181673   
     length 3.74989  
     axis 0 0 0   XYZ 
    dof ry rz
    limits (-10.0 20.0)
           (-20.0 0.0)
  end
  begin
     id 25 
     name rhumerus
     direction -1 -4.48985e-011 2.38206e-027  
     length 4.61118   
     axis 180 30 90   XYZ
    dof rx ry rz
    limits (-90.0 60.0)
           (-90.0 90.0)
           (-90.0 90.0)
  end
  begin
     id 26 
     name rradius
     direction -1 -4.48977e-011 7.41019e-027   
     length 2.91491   
     axis 180 30 90   XYZ
    dof rx
    limits (-10.0 170.0)
  end
  begin
     id 27 
     name rwrist
     direction -1 -4.48549e-011 1.3624e-026   
     length 1.45745   
     axis -1.00488e-014 -90 -90   XYZ
    dof ry
    limits (-180.0 0.0)
  end
  begin
     id 28
     name rhand
     direction -1 -4.49107e-011 2.72109e-026   
     length 1.30769   
     axis -1.73687e-014 -90 -90   XYZ
    dof rx rz
    limits (-90.0 90.0)
           (-45.0 45.0)
  end
  begin
     id 29
     name rfingers
     direction -1 -4.48919e-011 5.44468e-026   
     length 1.05429   
     axis -3.47372e-014 -90 -90   XYZ
    dof rx
    limits (0.0 90.0)
  end
  begin
     id 30
     name rthumb
     direction -0.707107 -6.35315e-011 0.707107   
     length 1.51376   
     axis -90 -45 1.62303e-014   XYZ
    dof rx rz
    limits (-45.0 45.0)
           (-45.0 45.0)
  end
:hierarchy
  begin
    root lhipjoint rhipjoint lowerback
    lhipjoint lfemur
    lfemur ltibia
    ltibia lfoot
    lfoot ltoes
    rhipjoint rfemur
    rfemur rtibia
    rtibia rfoot
    rfoot rtoes
    lowerback upperback
    upperback thorax
    thorax lowerneck lclavicle rclavicle
    lowerneck upperneck
    upperneck head
    lclavicle lhumerus
    lhumerus lradius
    lradius lwrist
    lwrist lhand lthumb
    lhand lfingers
    rclavicle rhumerus
    rhumerus rradius
    rradius rwrist
    rwrist rhand rthumb
    rhand rfingers
  end

#!OML:ASF X:\für Bonn\!DataBase\2005_08_11_Bastian_Final\c3d\Bastian.ASF
:FULLY-SPECIFIED
:DEGREES
1
root 2.10252 14.5337 -19.4336 715.46 4.07893 -9.77603
lowerback 19.0966 -1.40936 1.19497
upperback 5.28042 -1.46513 2.29103
thorax -4.95614 -0.725275 2.09833
lowerneck -16.6303 -4.02864 -0.718186
upperneck -15.0101 -4.60968 8.90748
head -1.84011 -2.33843 2.88536
rclavicle 3.24019e-014 -6.36111e-015
rhumerus -44.4668 -2.0786 -84.3733
rradius 31.4385
rwrist 2.66652
rhand -20.5502 16.0898
rfingers 7.12502
rthumb 5.80862 -13.8106
lclavicle 3.24019e-014 -6.36111e-015
lhumerus -13.7105 18.1663 81.9421
lradius 33.9477
lwrist -170.839
lhand -26.7746 14.9226
lfingers 7.12502
lthumb -0.202402 44.9023
rfemur -29.5337 -1.63898 36.344
rtibia 79.681
rfoot -38.5381 5.92663
rtoes 37.057
lfemur -32.305 -1.03799 -8.37548
ltibia 85.4148
lfoot -37.7961 -14.2692
ltoes -9.28015
2
root 2.1302 14.5385 -19.2255 715.586 4.00196 -9.47517
lowerback 18.6034 -1.51962 1.21609
upperback 4.959 -1.61925 2.19298
thorax -5.04019 -0.800332 2.00802
lowerneck -16.469 -3.90464 -1.00894
upperneck -14.6894 -4.40752 9.09352
head -1.75409 -2.2188 3.00511
rclavicle 1.80894e-014 -2.78299e-014
rhumerus -43.2701 -0.230601 -84.9147
rradius 34.9045
rwrist 4.31883
rhand -19.2679 16.223
rfingers 7.12502
rthumb 7.04657 -13.6397
lclavicle 1.80894e-014 -2.78299e-014
lhumerus -12.0469 14.1683 82.399
lradius 37.1511
lwrist -169.275
lhand -27.5654 13.0133
lfingers 7.12502
lthumb -0.96615 42.9908
rfemur -28.6183 -1.4026 35.9984
rtibia 79.586
rfoot -38.9862 5.91779
rtoes 36.6568
lfemur -31.3962 -0.599832 -8.72107
ltibia 85.3016
lfoot -37.9981 -14.4351
ltoes -10.2914
3
root 2.15743 14.5857 -19.0086 715.763 3.57723 -9.12481
lowerback 17.8717 -1.53306 1.12591
upperback 4.63172 -1.67519 2.08512
thorax -5.00199 -0.827796 1.94003
lowerneck -16.316 -3.74976 -1.34275
upperneck -14.1816 -4.17099 9.31092
head -1.60433 -2.07576 3.1414
rclavicle 1.5704e-014 8.74653e-015
rhumerus -41.8934 1.47256 -85.2609
rradius 38.5123
rwrist 5.94501
rhand -18.5624 16.7979
rfingers 7.12502
rthumb 7.72751 -13.0409
lclavicle 1.5704e-014 8.74653e-015
lhumerus -10.842 10.0889 82.3118
lradius 40.2
lwrist -167.22
lhand -28.6486 10.659
lfingers 7.12502
lthumb -2.01235 40.6293
rfemur -27.4439 -1.12432 35.5356
rtibia 79.0554
rfoot -39.0579 6.3135
rtoes 36.6237
lfemur -30.1403 0.147631 -9.06096
ltibia 84.7313
lfoot -37.9991 -14.5006
ltoes -11.8982
4
root 2.18936 14.6821 -18.781 715.993 2.9084 -8.86257
lowerback 16.9148 -1.52124 1.22065
upperback 4.25632 -1.67166 1.94877
thorax -4.89876 -0.828101 1.71806
lowerneck -16.0174 -3.57225 -1.71131
upperneck -13.5423 -3.90591 9.60756
head -1.43397 -1.91792 3.31454
rclavicle 1.96797e-014 7.95139e-016
rhumerus -40.7137 3.6735 -85.8227
rradius 42.4791
rwrist 6.32533
rhand -17.9639 17.0877
rfingers 7.12502
rthumb 8.30514 -12.7291
lclavicle 1.96797e-014 7.95139e-016
lhumerus -10.1502 5.98939 81.7411
lradius 43.1601
lwrist -165.053
lhand -29.4423 11.0206
lfingers 7.12502
lthumb -2.77886 40.9822
rfemur -26.0086 -1.00307 35.056
rtibia 77.9936
rfoot -38.6819 6.97419
rtoes 36.8051
lfemur -28.5999 1.03494 -9.2866
ltibia 83.6768
lfoot -37.6924 -14.5642
ltoes -13.3628
5
root 2.22182 14.8117 -18.5379 716.209 2.01724 -8.54558
lowerback 15.6492 -1.45211 1.30297
upperback 3.94949 -1.60682 1.78791
thorax -4.55293 -0.799246 1.45555
lowerneck -15.6901 -3.39824 -2.11722
upperneck -12.8576 -3.64697 9.92913
head -1.25388 -1.7621 3.50549
rclavicle -1.50082e-014 1.35174e-014
rhumerus -39.7588 6.0161 -86.288
rradius 46.4277
rwrist 6.00535
rhand -17.821 17.7522
rfingers 7.12502
rthumb 8.4431 -12.059
lclavicle -1.50082e-014 1.35174e-014
lhumerus -9.70013 2.03988 80.8273
lradius 46.0667
lwrist -162.851
lhand -29.6224 12.8864
lfingers 7.12502
lthumb -2.95276 42.8457
rfemur -24.2877 -0.971023 34.4283
rtibia 76.461
rfoot -37.8163 7.88995
rtoes 37.1842
lfemur -26.7745 2.08682 -9.53858
ltibia 82.1842
lfoot -36.9971 -14.6344
ltoes -14.7227
6
root 2.25311 14.9718 -18.2801 716.481 1.03153 -8.20432
lowerback 14.0789 -1.36194 1.44108
upperback 3.64042 -1.5161 1.58764
thorax -4.04017 -0.757599 1.11129
lowerneck -15.4828 -3.26307 -2.4948
upperneck -11.9402 -3.46657 10.2425
head -0.974126 -1.63857 3.68162
rclavicle -9.54166e-015 -1.90833e-014
rhumerus -39.0788 8.22741 -86.5246
rradius 50.4969
rwrist 6.35054
rhand -17.7268 18.2944
rfingers 7.12502
rthumb 8.53398 -11.5132
lclavicle -9.54166e-015 -1.90833e-014
lhumerus -9.58054 -1.82084 79.5762
lradius 49.1444
lwrist -160.728
lhand -28.7366 14.5519
lfingers 7.12502
lthumb -2.0973 44.5214
rfemur -22.4078 -0.989574 33.6941
rtibia 74.4674
rfoot -36.4253 8.94186
rtoes 37.9161
lfemur -24.883 3.18568 -9.79098
ltibia 80.2958
lfoot -35.8264 -14.7578
ltoes -15.521
7
root 2.27986 15.1616 -18.0071 716.818 0.00174784 -7.79307
lowerback 12.2935 -1.24986 1.49726
upperback 3.26028 -1.41182 1.38632
thorax -3.47343 -0.707619 0.812591
lowerneck -15.2946 -3.13585 -2.81691
upperneck -10.7935 -3.33298 10.4097
head -0.617707 -1.53541 3.79317
rclavicle -1.58034e-014 1.43125e-014
rhumerus -38.6214 10.3552 -86.5418
rradius 54.5104
rwrist 7.45907
rhand -17.7916 19.0861
rfingers 7.12502
rthumb 8.4715 -10.7239
lclavicle -1.58034e-014 1.43125e-014
lhumerus -9.76938 -5.28654 78.1879
lradius 52.7751
lwrist -159.018
lhand -28.5262 14.5534
lfingers 7.12502
lthumb -1.89407 44.5247
rfemur -20.393 -1.04155 32.8483
rtibia 72.044
rfoot -34.5431 9.92594
rtoes 38.6849
lfemur -22.9007 4.24125 -10.0921
ltibia 77.9983
lfoot -34.0934 -15.048
ltoes -15.3561
8
root 2.30245 15.3831 -17.7149 717.191 -1.05893 -7.30161
lowerback 10.3168 -1.109 1.4879
upperback 2.84357 -1.27945 1.14718
thorax -2.82874 -0.642179 0.512015
lowerneck -15.1879 -3.02038 -3.05492
upperneck -9.43002 -3.2481 10.5225
head -0.176858 -1.45307 3.86871
rclavicle 1.13307e-014 1.66979e-014
rhumerus -38.3606 12.4984 -86.5166
rradius 58.3744
rwrist 7.98623
rhand -17.7747 20.2007
rfingers 7.12502
rthumb 8.48773 -9.60869
lclavicle 1.13307e-014 1.66979e-014
lhumerus -10.3096 -8.34147 76.6592
lradius 57.0876
lwrist -157.743
lhand -29.2935 13.7055
lfingers 7.12502
lthumb -2.63514 43.669
rfemur -18.2173 -1.00714 31.9081
rtibia 69.2194
rfoot -32.2628 10.6627
rtoes 39.4225
lfemur -20.7171 5.22123 -10.4312
ltibia 75.2409
lfoot -31.7493 -15.6283
ltoes -13.8174
9
root 2.31858 15.6324 -17.3967 717.555 -1.81065 -6.71168
lowerback 8.06649 -1.06692 1.31871
upperback 2.46348 -1.29146 0.935726
thorax -1.98125 -0.646643 0.347946
lowerneck -15.0891 -2.84716 -3.29128
upperneck -7.95128 -3.0993 10.5444
head 0.295577 -1.33806 3.92129
rclavicle -1.20762e-014 1.59028e-015
rhumerus -38.2254 14.7938 -86.4687
rradius 62.1163
rwrist 7.47245
rhand -17.3742 21.1
rfingers 7.12502
rthumb 8.8743 -8.69343
lclavicle -1.20762e-014 1.59028e-015
lhumerus -10.9831 -10.9244 75.1308
lradius 61.5362
lwrist -156.888
lhand -30.0655 12.9697
lfingers 7.12502
lthumb -3.38076 42.9226
rfemur -15.8868 -1.46464 30.7662
rtibia 66.0279
rfoot -29.7317 10.9889
rtoes 38.9866
lfemur -18.3612 5.75465 -10.8862
ltibia 72.0027
lfoot -28.6929 -16.3719
ltoes -11.4786
10
root 2.32897 15.9146 -17.0535 717.827 -2.29088 -5.88334
lowerback 5.66017 -1.06687 0.874027
upperback 2.16402 -1.36574 0.659071
thorax -0.951095 -0.682017 0.273147
lowerneck -14.9781 -2.68464 -3.37045
upperneck -6.46106 -2.99002 10.408
head 0.764619 -1.25058 3.89134
rclavicle -3.97569e-015 -5.56597e-015
rhumerus -38.1525 17.014 -86.4142
rradius 65.7613
rwrist 6.02523
rhand -16.2752 21.3597
rfingers 7.12502
rthumb 9.93465 -8.38585
lclavicle -3.97569e-015 -5.56597e-015
lhumerus -11.6589 -13.4001 73.5586
lradius 65.7191
lwrist -156.288
lhand -30.7367 12.9809
lfingers 7.12502
lthumb -4.02891 42.9225
rfemur -13.2796 -2.47224 29.24
rtibia 62.4714
rfoot -26.9266 11.0087
rtoes 37.4345
lfemur -15.7342 6.00351 -11.6409
ltibia 68.2912
lfoot -25.1205 -16.7922
ltoes -9.84727
11
root 2.33391 16.2357 -16.6981 717.993 -2.68161 -5.22043
lowerback 3.25958 -1.11867 0.509883
upperback 1.92405 -1.47712 0.456598
thorax 0.144295 -0.73748 0.227034
lowerneck -14.7618 -2.51569 -3.41191
upperneck -5.08873 -2.86693 10.2147
head 1.17309 -1.16558 3.84042
rclavicle -4.5472e-015 1.59028e-015
rhumerus -38.1171 19.1706 -86.3428
rradius 69.2866
rwrist 4.19068
rhand -15.2499 21.7063
rfingers 7.12502
rthumb 10.9237 -7.9895
lclavicle -4.5472e-015 1.59028e-015
lhumerus -12.5751 -15.6629 72.0028
lradius 69.8033
lwrist -155.308
lhand -31.0422 13.2991
lfingers 7.12502
lthumb -4.3239 43.2349
rfemur -10.3979 -3.51993 27.8859
rtibia 58.5647
rfoot -23.7945 10.5921
rtoes 35.4069
lfemur -12.8714 6.26807 -12.2126
ltibia 64.1965
lfoot -21.3468 -16.6345
ltoes -11.613
